<svg xmlns="http://www.w3.org/2000/svg" viewBox="0 0 400 120" fill="currentColor">
  
  <g opacity="0.18"><polygon points="0,20 40,20 70,60 40,100 0,100 30,60"></polygon></g>
  <g opacity="0.32"><polygon points="40,20 80,20 110,60 80,100 40,100 70,60"></polygon></g>
  <g opacity="0.5"><polygon points="80,20 120,20 150,60 120,100 80,100 110,60"></polygon></g>
  <g opacity="0.7"><polygon points="120,20 160,20 190,60 160,100 120,100 150,60"></polygon></g>
  <g opacity="0.85"><polygon points="160,20 200,20 230,60 200,100 160,100 190,60"></polygon></g>
  <g><polygon points="200,20 240,20 270,60 240,100 200,100 230,60"></polygon></g>
  <g><polygon points="240,20 280,20 310,60 280,100 240,100 270,60"></polygon></g>
  <g><polygon points="280,20 320,20 350,60 320,100 280,100 310,60"></polygon></g>
  <g><polygon points="320,20 360,20 390,60 360,100 320,100 350,60"></polygon></g>
</svg>