<?xml version="1.0" encoding="UTF-8"?><svg id="Layer_1" xmlns="http://www.w3.org/2000/svg" viewBox="0 0 1024 593.5"><path d="M975.5,504.6c-10.9-35.2-16.6-53.1-28-87.3-3.1-9.3-6.2-18.6-9.3-28-9.5-1.6-20-3.3-29.5-5-15-2.7-24.6-4.7-36-6.6v-162.5c11.5-1.9,21.1-3.9,36.1-6.6,9.5-1.7,19.9-3.4,29.4-5,3.1-9.3,6.2-18.6,9.4-27.9,11.4-34.1,17.2-51.9,28-86.6,9.4-30,17.7-59.7,27.1-89-29.2,5.6-274.5,72.3-500.4,72.3S16.8,4.7,3,.4c9.4,29.4,18.9,59.1,28.3,89.2,10.9,34.9,16.7,52.7,28,86.4,3.1,9.3,6.2,18.6,9.4,27.9,9.5,1.6,19.9,3.3,29.4,5,16.9,3,28.4,5,41.6,7.1,20,30.4,34,51.6,52.4,75.7-20.3,27.5-35.4,51.1-57.2,85.6-12.2,2-23.2,3.9-39.1,6.8-9.5,1.7-21,3.4-30.5,5-3.1,9.4-6.2,18.7-9.3,28-11.2,33.6-17,51.6-28,87.3-9.3,30-18.6,59.6-27.8,88.9,91.9-16.8,271.1-72,501.5-71.7,196.1.2,452.3,59.9,501.9,71.6-9.3-29.3-18.5-58.9-27.8-88.8"></path><path d="M524.9,190.3c9.1,0,13.7-.2,22.8-.3v212.9c-6.3-.1-9.5-.2-15.8-.2-40-46-60-67.8-99.9-113.8,37.1-39.7,55.7-58.7,92.9-98.6M664.7,184.4c14.4-1,24.3-1.6,38.6-2.8v229.5c-14.3-1.2-21.5-1.8-35.8-2.8h-2.8v-223.9ZM358.8,471.2c49-3.9,96.7-5.6,143.7-5.2,143.9,1.1,280.8,21.6,424.2,57.3-11-36.2-16.5-53.6-27.6-87.5-31-5.1-46.7-7.5-78.5-11.7v-255.4c31.7-4.2,47.5-6.6,78.5-11.7,11.1-33.5,16.6-50.9,27.6-86.8-190.5,47.6-369.7,68.2-568.8,52.6v63.3c21.9,1.2,25.7,1.7,47.7,2.4-23.6,27.7-35.4,41.7-58.8,70.8-21.4-30.1-32.2-45.5-53.4-78.2,19,2,21.4,3,40.6,4.5v-63.5c-89.8-12.5-182-29.1-252.9-48.2,11,35.8,15.6,50,26.7,83.5,24.4,4,36.6,5.9,61.4,9.4,35.2,54.8,53,79.1,88.9,124.6-37.6,49.3-56.3,75.6-93.1,135.5-24,3.4-35.9,5.2-59.5,9.1-11.1,33.8-15.6,50.3-26.6,86.4,86.7-21.2,163.3-35.6,253.3-48v-66.2c-22.9,1.6-27.1,2.6-49.8,4.8,24.8-35.7,37.2-52.4,62.2-84.7,25.3,31.4,37.9,46.4,63.3,76.2-22.5.9-26.5,1.6-48.9,3.1v63.7Z" style="fill:#fff;"></path><path d="M1017.4,580.3c1.1,0,2.2.3,3.2.9s1.9,1.4,2.5,2.4.9,2.2.9,3.3-.3,2.2-.9,3.3-1.4,1.9-2.4,2.4c-1,.6-2.1.9-3.3.9s-2.2-.3-3.3-.9c-1-.6-1.9-1.4-2.4-2.4-.6-1-.9-2.1-.9-3.3s.3-2.2.9-3.3,1.4-1.9,2.5-2.4c1.1-.6,2.1-.9,3.2-.9ZM1017.4,581.4c-.9,0-1.8.2-2.7.7-.9.5-1.6,1.2-2.1,2s-.7,1.8-.7,2.8.2,1.9.7,2.7,1.2,1.5,2,2c.9.5,1.8.7,2.7.7s1.9-.2,2.7-.7c.9-.5,1.6-1.2,2-2,.5-.9.7-1.8.7-2.7s-.2-1.9-.7-2.8-1.2-1.6-2.1-2c-.9-.5-1.8-.7-2.7-.7ZM1014.5,590.6v-7.1h2.4c.8,0,1.4,0,1.8.2.4.1.7.4.9.7s.3.7.3,1-.2,1-.6,1.4-.9.6-1.5.6c.3.1.5.2.6.4.3.3.6.7,1,1.4l.9,1.4h-1.4l-.6-1.1c-.5-.8-.8-1.4-1.1-1.6-.3-.2-.6-.3-1-.3h-.7v3h-1.1ZM1015.7,586.6h1.4c.7,0,1.1,0,1.4-.3s.4-.5.4-.8-.2-.7-.5-.9c-.2-.1-.7-.2-1.3-.2h-1.3v2.1Z"></path></svg>