<?xml version="1.0" encoding="utf-8"?>
<!-- Generator: Adobe Illustrator 30.3.0, SVG Export Plug-In . SVG Version: 9.03 Build 0)  -->
<svg version="1.1" id="Layer_1" xmlns="http://www.w3.org/2000/svg" xmlns:xlink="http://www.w3.org/1999/xlink" x="0px" y="0px"
	 viewBox="0 0 1028 1028" enable-background="new 0 0 1028 1028" xml:space="preserve">
<g>
	<polygon points="41.3,408.6 15.6,430.6 0.3,414.3 0.3,329.5 41.3,367.4 	"/>
	<polygon points="127.7,661.7 127.7,620.8 151.8,600.3 167.5,615.6 167.5,698.5 	"/>
	<path d="M167.5,331.4l0,59.9l-40.1,33l39.7,42l0.3,91.4L0,697.2l0.3-56.7l41-36.8c0,0-8.2-8-12.5-11.8
		c-9.6-8.6-28.5-26.4-28.5-26.4l0-95.1c0,0,55.6-46.8,82.8-69.8L167.5,331.4z M137.4,500.3H53.5l22.1-19.9l61.8,1.2v-6.9l-31.6-30.3
		l-72.6,62.2l-0.7,16.2h95.2L104,541.4H32.5l0,6.8l33.1,34.1l71.8-59.6V500.3L137.4,500.3z"/>
	<polygon points="283.5,396.8 283.5,487.8 364.7,487.8 364.7,396.8 404.7,396.8 404.7,616.2 364.7,616.2 364.7,526.5 283.5,526.5
		283.5,616.2 242.3,616.2 242.3,396.8 	"/>
	<polygon points="583.3,396.8 583.3,434.2 480.9,435.5 480.9,487.8 570.8,487.8 541.5,526.5 480.9,526.5 480.9,577.6 583.3,578.8
		583.3,616.2 439.7,616.2 439.7,396.8 	"/>
	<polygon points="895,396.8 939.3,472.9 985.2,396.8 1028,396.8 962.9,510.8 1028,616.2 981.2,616.2 939.3,542.7 894.2,616.2
		848.1,616.2 914.4,510.8 849.4,396.8 	"/>
	<polygon points="650.2,396.8 652,577.6 700.7,578.8 700.7,616.2 612.1,616.2 612.1,396.8 	"/>
	<rect x="791.9" y="396.8" width="40" height="219.4"/>
	<polygon points="764.4,396.8 764.4,616.2 725.7,616.2 724.5,396.8 	"/>
</g>
<g display="none">
	<line display="inline" fill="none" stroke="#000000" stroke-width="0.3" x1="314" y1="260" x2="314" y2="296"/>
	<line display="inline" fill="none" stroke="#000000" stroke-width="0.3" x1="260" y1="314" x2="296" y2="314"/>
	<line display="inline" fill="none" stroke="#000000" stroke-width="0.3" x1="260" y1="714" x2="296" y2="714"/>
	<line display="inline" fill="none" stroke="#000000" stroke-width="0.3" x1="314" y1="768" x2="314" y2="732"/>
	<line display="inline" fill="none" stroke="#000000" stroke-width="0.3" x1="714" y1="260" x2="714" y2="296"/>
	<line display="inline" fill="none" stroke="#000000" stroke-width="0.3" x1="768" y1="314" x2="732" y2="314"/>
	<line display="inline" fill="none" stroke="#000000" stroke-width="0.3" x1="768" y1="714" x2="732" y2="714"/>
	<line display="inline" fill="none" stroke="#000000" stroke-width="0.3" x1="714" y1="768" x2="714" y2="732"/>
</g>
</svg>
