<?xml version="1.0" encoding="utf-8"?>

<svg version="1.1" id="Layer_1" xmlns="http://www.w3.org/2000/svg" xmlns:xlink="http://www.w3.org/1999/xlink" x="0px" y="0px" width="800" height="160" viewBox="0 0 800 160" enable-background="new 0 0 800 160" xml:space="preserve">
<g>
&#x9;<polygon fill="#FFFFFF" points="210.4,37.7 200.1,46.5 193.9,40 193.9,6 210.4,21.2 &#x9;"></polygon>
&#x9;<polygon fill="#FFFFFF" points="245,139.2 245,122.9 254.7,114.6 261,120.7 261,154 &#x9;"></polygon>
&#x9;<path fill="#FFFFFF" d="M261,6.7l0,24L244.9,44l15.9,16.8l0.1,36.6l-67.2,56l0.1-22.8l16.4-14.8c0,0-3.3-3.2-5-4.7&#xA;&#x9;&#x9;c-3.9-3.5-11.4-10.6-11.4-10.6l0-38.1c0,0,22.3-18.8,33.2-28L261,6.7z M248.9,74.5h-33.6l8.9-8l24.8,0.5v-2.8l-12.7-12.2L207.1,77&#xA;&#x9;&#x9;l-0.3,6.5H245l-9.5,7.5h-28.7l0,2.7l13.3,13.7l28.8-23.9V74.5L248.9,74.5z"></path>
&#x9;<polygon fill="#FFFFFF" points="307.6,33 307.6,69.5 340.1,69.5 340.1,33 356.2,33 356.2,121 340.1,121 340.1,85 307.6,85 &#xA;&#x9;&#x9;307.6,121 291,121 291,33 &#x9;"></polygon>
&#x9;<polygon fill="#FFFFFF" points="427.8,33 427.8,48 386.7,48.5 386.7,69.5 422.8,69.5 411,85 386.7,85 386.7,105.5 427.8,106 &#xA;&#x9;&#x9;427.8,121 370.2,121 370.2,33 &#x9;"></polygon>
&#x9;<polygon fill="#FFFFFF" points="552.8,33 570.6,63.5 589,33 606.2,33 580.1,78.7 606.2,121 587.4,121 570.6,91.5 552.5,121 &#xA;&#x9;&#x9;534,121 560.6,78.7 534.5,33 &#x9;"></polygon>
&#x9;<polygon fill="#FFFFFF" points="454.6,33 455.4,105.5 474.9,106 474.9,121 439.3,121 439.3,33 &#x9;"></polygon>
&#x9;<rect x="511.5" y="33" fill="#FFFFFF" width="16" height="88"></rect>
&#x9;<polygon fill="#FFFFFF" points="500.5,33 500.5,121 484.9,121 484.4,33 &#x9;"></polygon>
</g>
</svg>