<?xml version="1.0" encoding="UTF-8"?><svg id="Layer_1" xmlns="http://www.w3.org/2000/svg" viewBox="0 0 1500 1500"><defs></defs><path class="cls-1" d="M1087,15v241.2s-161.2,132.7-161.2,132.7l159.9,169,1.4,367.7-674.1,561.9,1-228.3,164.9-148.1s-33.1-32.1-50.4-47.5c-38.8-34.7-114.5-106.5-114.5-106.5v-382.6S1087,15,1087,15ZM966,694.8h-337.6l88.8-80.2,248.8,4.9v-27.9l-127.3-122-292.3,250.2-2.7,65.2h383.2l-95.1,75.3h-288.1v27.5c.1,0,133.2,137.2,133.2,137.2l289.2-240v-90.3h0Z"></path><polygon class="cls-1" points="579.2 325.8 475.7 414.1 414 348.6 414 7.5 579.2 160 579.2 325.8"></polygon><polygon class="cls-1" points="926.8 1344.4 926.8 1180 1023.9 1097.4 1087 1158.8 1087 1492.5 926.8 1344.4"></polygon><path d="M1087,15v241.2s-161.2,132.7-161.2,132.7l159.9,169,1.4,367.7-674.1,561.9,1-228.3,164.9-148.1s-33.1-32.1-50.4-47.5c-38.8-34.7-114.5-106.5-114.5-106.5v-382.6S1087,15,1087,15ZM966,694.8h-337.6l88.8-80.2,248.8,4.9v-27.9l-127.3-122-292.3,250.2-2.7,65.2h383.2l-95.1,75.3h-288.1v27.5c.1,0,133.2,137.2,133.2,137.2l289.2-240v-90.3h0Z"></path><polygon points="579.2 325.8 475.7 414.1 414 348.6 414 7.5 579.2 160 579.2 325.8"></polygon><polygon points="926.8 1344.4 926.8 1180 1023.9 1097.4 1087 1158.8 1087 1492.5 926.8 1344.4"></polygon></svg>